# xmcd
#
# Track frame offsets: 
#        150
#        21852
#        41860
#        65485
#        85517
#        107322
#        131815
#        148735
#        169107
#        188855
#
# Disc length: 2812 seconds
#
# Revision: 0
# Processed by: cddbd v1.5.2PL0 Copyright (c) Steve Scherf et al.
# Submitted via: ExactAudioCopy v1.0b3
#
DISCID=860afa0a
DTITLE=Tuan Vu, Phuong Dung - Tien Nguoi Di
DYEAR=1991
DGENRE=
TTITLE0=Tinh chang y thiep
TTITLE1=Tuan Vu - Tinh anh bien rong song dai
TTITLE2=Phuong Dung - Tien nguoi di
TTITLE3=Tuan Vu - Da ta
TTITLE4=Phuong Dung - Mua thuong tay doi mat cho
TTITLE5=Tuan Vu - Xintron tuoi loan
TTITLE6=Phuong Dung - Toi buoc vao yeu
TTITLE7=Tuan Vu - Suong trang mien que ngoai
TTITLE8=Phuong Dung - Hoa mot ten nguoi hai ho
TTITLE9=Tinh lua duyen trang
EXTD=
EXTT0=
EXTT1=
EXTT2=
EXTT3=
EXTT4=
EXTT5=
EXTT6=
EXTT7=
EXTT8=
EXTT9=
PLAYORDER=
